<svg width="37" height="25" viewBox="0 0 37 25" fill="none" xmlns="http://www.w3.org/2000/svg">
<path d="M10.0625 12.5C11.5543 12.5 12.9851 11.9074 14.04 10.8525C15.0949 9.79758 15.6875 8.36684 15.6875 6.875C15.6875 5.38316 15.0949 3.95242 14.04 2.89752C12.9851 1.84263 11.5543 1.25 10.0625 1.25H1.625V23.75H10.0625C11.5543 23.75 12.9851 23.1574 14.04 22.1025C15.0949 21.0476 15.6875 19.6168 15.6875 18.125C15.6875 16.6332 15.0949 15.2024 14.04 14.1475C12.9851 13.0926 11.5543 12.5 10.0625 12.5ZM10.0625 12.5H1.625M22.25 14.375H35.375C35.375 12.6345 34.6836 10.9653 33.4529 9.73461C32.2222 8.5039 30.553 7.8125 28.8125 7.8125C27.072 7.8125 25.4028 8.5039 24.1721 9.73461C22.9414 10.9653 22.25 12.6345 22.25 14.375ZM22.25 14.375V18.125C22.4434 19.5287 23.086 20.8322 24.0816 21.8404C25.0773 22.8487 26.3726 23.5076 27.7738 23.7186C29.175 23.9296 30.6069 23.6815 31.8553 23.0112C33.1038 22.3409 34.1017 21.2845 34.7 20M26 1.25H31.625" stroke="currentColor" stroke-width="2" stroke-linecap="round" stroke-linejoin="round"/>
</svg>
