<svg width="33" height="33" viewBox="0 0 33 33" fill="none" xmlns="http://www.w3.org/2000/svg">
<path d="M24.9375 8.0625V8.08125M1.5 9C1.5 7.01088 2.29018 5.10322 3.6967 3.6967C5.10322 2.29018 7.01088 1.5 9 1.5H24C25.9891 1.5 27.8968 2.29018 29.3033 3.6967C30.7098 5.10322 31.5 7.01088 31.5 9V24C31.5 25.9891 30.7098 27.8968 29.3033 29.3033C27.8968 30.7098 25.9891 31.5 24 31.5H9C7.01088 31.5 5.10322 30.7098 3.6967 29.3033C2.29018 27.8968 1.5 25.9891 1.5 24V9ZM10.875 16.5C10.875 17.9918 11.4676 19.4226 12.5225 20.4775C13.5774 21.5324 15.0082 22.125 16.5 22.125C17.9918 22.125 19.4226 21.5324 20.4775 20.4775C21.5324 19.4226 22.125 17.9918 22.125 16.5C22.125 15.0082 21.5324 13.5774 20.4775 12.5225C19.4226 11.4676 17.9918 10.875 16.5 10.875C15.0082 10.875 13.5774 11.4676 12.5225 12.5225C11.4676 13.5774 10.875 15.0082 10.875 16.5Z" stroke="currentColor" stroke-width="2" stroke-linecap="round" stroke-linejoin="round"/>
</svg>
