<svg width="33" height="33" viewBox="0 0 33 33" fill="none" xmlns="http://www.w3.org/2000/svg">
<path d="M9 14.625V24M9 9V9.01875M16.5 24V14.625M24 24V18.375C24 17.3804 23.6049 16.4266 22.9016 15.7234C22.1984 15.0201 21.2446 14.625 20.25 14.625C19.2554 14.625 18.3016 15.0201 17.5984 15.7234C16.8951 16.4266 16.5 17.3804 16.5 18.375M1.5 5.25C1.5 4.25544 1.89509 3.30161 2.59835 2.59835C3.30161 1.89509 4.25544 1.5 5.25 1.5H27.75C28.7446 1.5 29.6984 1.89509 30.4016 2.59835C31.1049 3.30161 31.5 4.25544 31.5 5.25V27.75C31.5 28.7446 31.1049 29.6984 30.4016 30.4016C29.6984 31.1049 28.7446 31.5 27.75 31.5H5.25C4.25544 31.5 3.30161 31.1049 2.59835 30.4016C1.89509 29.6984 1.5 28.7446 1.5 27.75V5.25Z" stroke="currentColor" stroke-width="2" stroke-linecap="round" stroke-linejoin="round"/>
</svg>
