<svg width="56" height="36" viewBox="0 0 56 36" fill="none" xmlns="http://www.w3.org/2000/svg">
<g clip-path="url(#clip0_176_284)">
<path d="M1.85699 11.0605L4.82808 11.6766C15.6579 13.9223 24.2349 22.1483 26.954 32.8306C17.9237 33.7143 9.32393 28.6387 5.75726 20.2423L1.85699 11.0605Z" fill="currentColor" stroke="white" stroke-width="1.14286" stroke-linejoin="bevel"/>
<path d="M55.9581 13.4282L52.9246 13.4938C41.8669 13.7332 31.9374 20.2628 27.3215 30.2727C36.0406 32.7835 45.4199 29.3559 50.4536 21.7478L55.9581 13.4282Z" fill="currentColor" stroke="white" stroke-width="1.14286" stroke-linejoin="bevel"/>
<path d="M-0.684144 25.5169L2.12231 24.3633C12.352 20.1583 24.0647 22.1696 32.3001 29.4965C25.3139 35.2862 15.3467 35.8976 7.68939 30.9391L-0.684144 25.5169Z" fill="currentColor" stroke="white" stroke-width="1.14286" stroke-linejoin="bevel"/>
<path d="M56.5165 24.8312L53.71 23.6776C43.4803 19.4726 31.7676 21.4839 23.5323 28.8108C30.5185 34.6005 40.4856 35.2119 48.143 30.2534L56.5165 24.8312Z" fill="currentColor" stroke="white" stroke-width="1.14286" stroke-linejoin="bevel"/>
<path d="M10.4708 4.94163L13.2268 6.21097C23.2727 10.8378 29.7769 20.784 30.0205 31.8043C21.0232 30.6318 13.7873 23.7498 12.2031 14.7659L10.4708 4.94163Z" fill="currentColor" stroke="white" stroke-width="1.14286" stroke-linejoin="bevel"/>
<path d="M47.7517 4.98173L44.9956 6.25107C34.9497 10.8779 28.4455 20.8241 28.2019 31.8444C37.1992 30.6719 44.4351 23.7899 46.0193 14.806L47.7517 4.98173Z" fill="currentColor" stroke="white" stroke-width="1.14286" stroke-linejoin="bevel"/>
<path d="M29.0961 -0.954925L30.5989 1.75351C35.9452 11.3895 35.3338 23.2051 29.0789 32.2241C22.6537 23.6507 21.846 12.0719 27.0792 2.66897L29.0961 -0.954925Z" fill="currentColor" stroke="white" stroke-width="1.14286" stroke-linejoin="bevel"/>
<circle cx="28.9715" cy="34.5714" r="1.42857" fill="currentColor"/>
</g>
<defs>
<clipPath id="clip0_176_284">
<rect width="55.5429" height="36" fill="white"/>
</clipPath>
</defs>
</svg>
